<svg xmlns="http://www.w3.org/2000/svg" xmlns:xlink="http://www.w3.org/1999/xlink" width="75.554" height="65.849" viewBox="0 0 75.554 65.849">
  <defs>
    <style>
      .cls-1 {
        fill: #004120;
      }

      .cls-2 {
        fill: url(#linear-gradient);
      }

      .cls-3 {
        fill: #006933;
      }

      .cls-4 {
        stroke: rgba(0,0,0,0);
        fill: url(#linear-gradient-2);
      }
    </style>
    <linearGradient id="linear-gradient" x1="0.5" x2="0.5" y2="1" gradientUnits="objectBoundingBox">
      <stop offset="0" stop-color="#b8b8b8"/>
      <stop offset="1" stop-color="#949494"/>
    </linearGradient>
    <linearGradient id="linear-gradient-2" x1="0.5" x2="0.5" y2="1" gradientUnits="objectBoundingBox">
      <stop offset="0" stop-color="#dadada"/>
      <stop offset="1" stop-color="#aeaeae"/>
    </linearGradient>
  </defs>
  <g id="Groupe_291" data-name="Groupe 291" transform="translate(-608.51 -32.503)">
    <g id="Dialogo" transform="translate(608.51 32.503)">
      <g id="ui_pop_notifcation_shape" transform="translate(7 4)">
        <path id="path" class="cls-1" d="M70.715,30.674V61.349H35.627c-19.378,0-32.966-13.734-32.966-30.674S16.249,0,35.627,0,70.715,13.734,70.715,30.674Z" transform="translate(-2.661)"/>
      </g>
      <g id="ui_pop_notifcation_shape-2" data-name="ui_pop_notifcation_shape">
        <path id="path-2" data-name="path" class="cls-2" d="M70.715,30.674V61.349H35.627c-19.378,0-32.966-13.734-32.966-30.674S16.249,0,35.627,0,70.715,13.734,70.715,30.674Z" transform="translate(-2.661)"/>
      </g>
      <g id="ui_pop_notifcation_shape-3" data-name="ui_pop_notifcation_shape" transform="translate(3.545 2.3)">
        <path id="path-3" data-name="path" class="cls-3" d="M70.9,30.9v30.9H35.716c-19.43,0-33.054-13.833-33.054-30.9S16.286,0,35.716,0,70.9,13.833,70.9,30.9Z" transform="translate(-2.661)"/>
      </g>
      <g id="ui_pop_notifcation_shape-4" data-name="ui_pop_notifcation_shape" transform="translate(7 4)">
        <path id="path-4" data-name="path" class="cls-4" d="M70.715,30.674V61.349H35.627c-19.378,0-32.966-13.734-32.966-30.674S16.249,0,35.627,0,70.715,13.734,70.715,30.674Z" transform="translate(-2.661)"/>
      </g>
    </g>
  </g>
</svg>
